<?xml version="1.0" encoding="UTF-8"?>
<svg width="200px" height="200px" viewBox="0 0 200 200" version="1.1" xmlns="http://www.w3.org/2000/svg" xmlns:xlink="http://www.w3.org/1999/xlink">
    <!-- Generator: Sketch 56.2 (81672) - https://sketch.com -->
    <title>dispute graphic</title>
    <desc>Created with Sketch.</desc>
    <defs>
        <rect id="path-1" x="0" y="0" width="200" height="200"></rect>
    </defs>
    <g id="2.3-dashboard/security" stroke="none" stroke-width="1" fill="none" fill-rule="evenodd">
        <g id="dashboard/security/dispute/D---1.0-Dispute-Transaction" transform="translate(-335.000000, -230.000000)">
            <g id="Hero" transform="translate(0.000000, 230.000000)">
                <g id="dispute-graphic" transform="translate(335.000000, 0.000000)">
                    <mask id="mask-2" fill="white">
                        <use xlink:href="#path-1"></use>
                    </mask>
                    <use id="Mask" fill="#FFFFFF" opacity="0.00990513393" xlink:href="#path-1"></use>
                    <circle id="Oval" fill="#CBE5F2" mask="url(#mask-2)" cx="103.868255" cy="79.3013049" r="69.3013049"></circle>
                    <g id="dispute-icon" mask="url(#mask-2)">
                        <g transform="translate(28.218739, 34.334809)">
                            <path d="M23.2767742,2.11607038 L104.745484,2.11607038 C112.926198,2.11607038 119.557976,8.74784923 119.557976,16.928563 L119.557976,151.299032 L32.7990909,151.299032 C27.5400606,151.299032 23.2767742,147.035746 23.2767742,141.776715 L23.2767742,2.11607038 Z" id="bg" stroke="none" fill="#FFFFFF" fill-rule="evenodd"></path>
                            <path d="M116.383871,132.254399 L131.196363,132.254399 L131.196363,142.834751 C131.196363,147.509444 127.406776,151.299032 122.732082,151.299032 L116.383871,151.299032 L116.383871,132.254399 Z" id="Rectangle" stroke="none" fill="#FFFFFF" fill-rule="evenodd"></path>
                            <path d="M12.6964223,2.11607038 L23.2767742,2.11607038 L23.2767742,31.7410557 L3.17410557,31.7410557 L3.17410557,11.6383871 C3.17410557,6.37935678 7.43739197,2.11607038 12.6964223,2.11607038 Z" id="bg" stroke="none" fill="#FFFFFF" fill-rule="evenodd"></path>
                            <path d="M121.450232,12.8727615 C121.450232,5.66451773 115.764823,0 108.529994,0 L12.9202374,0 C5.685409,0 0,5.66451773 0,12.8727615 L0,30.2950743 C6.58771031e-16,32.0480844 1.42109547,33.4691798 3.17410557,33.4691798 L20.6723799,33.4691798 L20.6723799,141.600376 C20.6723799,148.80862 26.3577889,154.473138 33.5926173,154.473138 L121.450232,154.473138 C128.68506,154.473138 134.370469,148.80862 134.370469,141.600376 L134.370469,131.90172 C134.370469,130.14871 132.949374,128.727615 131.196363,128.727615 L121.450232,128.727615 L121.450232,12.8727615 Z M20.6723799,28.3200752 L5.16809496,28.3200752 L5.16809496,12.8727615 C5.16809496,8.49551989 8.52685216,5.14910459 12.9202374,5.14910459 C17.3136227,5.14910459 20.6723799,8.49551989 20.6723799,12.8727615 L20.6723799,28.3200752 Z M25.8404748,141.600376 L25.8404748,12.8727615 C25.8404748,10.0405026 24.8071081,7.46595031 23.2564273,5.14910459 L108.529994,5.14910459 C112.923379,5.14910459 116.282137,8.49551989 116.282137,12.8727615 L116.282137,128.727615 L44.5188653,128.727615 C42.7658552,128.727615 41.3447597,130.14871 41.3447597,131.90172 L41.3447597,141.600376 C41.3447597,145.977618 37.9860025,149.324033 33.5926173,149.324033 C29.199232,149.324033 25.8404748,145.977618 25.8404748,141.600376 Z M129.202374,133.876719 L129.202374,141.600376 C129.202374,145.977618 125.843617,149.324033 121.450232,149.324033 L43.9288072,149.324033 C45.738145,147.007187 46.5128547,144.432635 46.5128547,141.600376 L46.5128547,133.876719 L129.202374,133.876719 Z" id="Shape" stroke="#FFFFFF" stroke-width="1.05803519" fill="#1B1464" fill-rule="nonzero"></path>
                            <path d="M93.6361143,82.5267448 L108.448607,82.5267448 C109.909449,82.5267448 111.093695,83.710991 111.093695,85.1718328 C111.093695,86.6326745 109.909449,87.8169207 108.448607,87.8169207 L93.6361143,87.8169207 C92.1752725,87.8169207 90.9910263,86.6326745 90.9910263,85.1718328 C90.9910263,83.710991 92.1752725,82.5267448 93.6361143,82.5267448 Z" id="Path" stroke="#FFFFFF" stroke-width="1.05803519" fill="#1B1464" fill-rule="nonzero"></path>
                            <path d="M33.3281085,82.5267448 L81.9977272,82.5267448 C83.4585689,82.5267448 84.6428152,83.710991 84.6428152,85.1718328 C84.6428152,86.6326745 83.4585689,87.8169207 81.9977272,87.8169207 L33.3281085,87.8169207 C31.8672667,87.8169207 30.6830205,86.6326745 30.6830205,85.1718328 C30.6830205,83.710991 31.8672667,82.5267448 33.3281085,82.5267448 Z" id="Path" stroke="#FFFFFF" stroke-width="1.05803519" fill="#1B1464" fill-rule="nonzero"></path>
                            <path d="M34.3861437,93.1070967 L108.448607,93.1070967 C109.909449,93.1070967 111.093695,94.2913429 111.093695,95.7521846 C111.093695,97.2130264 109.909449,98.3972726 108.448607,98.3972726 L34.3861437,98.3972726 C32.9253019,98.3972726 31.7410557,97.2130264 31.7410557,95.7521846 C31.7410557,94.2913429 32.9253019,93.1070967 34.3861437,93.1070967 Z" id="Path" stroke="#FFFFFF" stroke-width="1.05803519" fill="#1B1464" fill-rule="nonzero"></path>
                            <path d="M34.3861437,113.209765 L90.4620087,113.209765 C91.9228504,113.209765 93.1070967,114.394011 93.1070967,115.854853 C93.1070967,117.315695 91.9228504,118.499941 90.4620087,118.499941 L34.3861437,118.499941 C32.9253019,118.499941 31.7410557,117.315695 31.7410557,115.854853 C31.7410557,114.394011 32.9253019,113.209765 34.3861437,113.209765 Z" id="Path" stroke="#FFFFFF" stroke-width="1.05803519" fill="#1B1464" fill-rule="nonzero"></path>
                            <path d="M66.746404,51.892202 L68.6519464,53.1697602 C69.3648339,53.647711 70.2958111,53.647711 71.0086986,53.1697602 L72.914241,51.892202 C82.1634882,45.6919463 87.8169207,35.0991597 87.8169207,23.9904208 L87.8169207,17.7582456 C87.8169207,16.3888606 86.9387023,15.1738572 85.6384257,14.744327 L70.8259331,9.85120427 C70.1793747,9.63762175 69.4812703,9.63762175 68.834712,9.85120427 L54.0222193,14.744327 C52.7219427,15.1738572 51.8437243,16.3888606 51.8437243,17.7582456 L51.8437243,23.9904208 C51.8437243,35.0991597 57.4971569,45.6919463 66.746404,51.892202 Z M56.9827523,19.0819375 L69.8303225,14.6894066 L82.6778927,19.0819375 L82.6778927,23.9904208 C82.6778927,33.5487805 78.0532691,42.3338423 70.0875248,47.7582779 L69.8303225,47.7582779 L69.5731203,47.5009322 C61.6073759,42.3338423 56.9827523,33.2914349 56.9827523,23.7318141 L56.9827523,19.0819375 Z" id="Shape" stroke="#FFFFFF" stroke-width="1.05803519" fill="#1B1464" fill-rule="nonzero"></path>
                            <path d="M77.2365688,25.9223786 L72.0639523,25.3928445 C71.5461857,29.8900106 69.2187608,34.1224095 65.5981817,36.7674975 L68.4433733,41.2633724 C73.3571065,37.5605075 76.7188022,32.0055645 77.2365688,25.9223786 Z" id="Path" stroke="#FFFFFF" stroke-width="1.05803519" fill="#1B1464" fill-rule="nonzero"></path>
                            <path d="M34.3861437,102.629413 L108.448607,102.629413 C109.909449,102.629413 111.093695,103.81366 111.093695,105.274501 C111.093695,106.735343 109.909449,107.919589 108.448607,107.919589 L34.3861437,107.919589 C32.9253019,107.919589 31.7410557,106.735343 31.7410557,105.274501 C31.7410557,103.81366 32.9253019,102.629413 34.3861437,102.629413 Z" id="Path" stroke="#FFFFFF" stroke-width="1.05803519" fill="#1B1464" fill-rule="nonzero"></path>
                            <path d="M61.8950586,71.9463929 L108.448607,71.9463929 C109.909449,71.9463929 111.093695,73.1306391 111.093695,74.5914809 C111.093695,76.0523226 109.909449,77.2365688 108.448607,77.2365688 L61.8950586,77.2365688 C60.4342168,77.2365688 59.2499706,76.0523226 59.2499706,74.5914809 C59.2499706,73.1306391 60.4342168,71.9463929 61.8950586,71.9463929 Z" id="Path" stroke="#FFFFFF" stroke-width="1.05803519" fill="#1B1464" fill-rule="nonzero"></path>
                            <path d="M33.3281085,71.9463929 L51.3147067,71.9463929 C52.7755484,71.9463929 53.9597947,73.1306391 53.9597947,74.5914809 C53.9597947,76.0523226 52.7755484,77.2365688 51.3147067,77.2365688 L33.3281085,77.2365688 C31.8672667,77.2365688 30.6830205,76.0523226 30.6830205,74.5914809 C30.6830205,73.1306391 31.8672667,71.9463929 33.3281085,71.9463929 Z" id="Path" stroke="#FFFFFF" stroke-width="1.05803519" fill="#1B1464" fill-rule="nonzero"></path>
                            <path d="M54.4888123,59.2499706 L85.1718328,59.2499706 C86.6326745,59.2499706 87.8169207,60.4342168 87.8169207,61.8950586 C87.8169207,63.3559003 86.6326745,64.5401466 85.1718328,64.5401466 L54.4888123,64.5401466 C53.0279705,64.5401466 51.8437243,63.3559003 51.8437243,61.8950586 C51.8437243,60.4342168 53.0279705,59.2499706 54.4888123,59.2499706 Z" id="Path" stroke="#FFFFFF" stroke-width="1.05803519" fill="#1B1464" fill-rule="nonzero"></path>
                        </g>
                    </g>
                    <g id="sparkles" mask="url(#mask-2)" fill="#1B1464">
                        <g transform="translate(6.000000, 10.000000)">
                            <circle id="Oval" fill-rule="evenodd" cx="25.3928445" cy="3.17410557" r="3.17410557"></circle>
                            <circle id="Oval" fill-rule="evenodd" cx="3.17410557" cy="94.1651319" r="3.17410557"></circle>
                            <path d="M186.336259,55.4763572 C184.415948,55.1157916 182.942067,53.6421959 182.581402,51.7223818 C182.581059,51.7204378 182.580487,51.7186081 182.58003,51.716664 C182.575684,51.6937927 182.569967,51.671722 182.564249,51.6493081 C182.561276,51.6376438 182.558531,51.6256364 182.555215,51.6140864 C182.548697,51.5914438 182.541036,51.569373 182.53326,51.547531 C182.529372,51.5365528 182.525484,51.5254602 182.521253,51.5147107 C182.512905,51.4930974 182.503528,51.4721702 182.493923,51.451243 C182.489005,51.4406078 182.483974,51.4299727 182.478714,51.4195662 C182.468422,51.3990965 182.457673,51.3789698 182.446238,51.3591861 C182.44052,51.3494658 182.434688,51.3397455 182.428628,51.330254 C182.416392,51.310356 182.403699,51.290801 182.39032,51.2717035 C182.384831,51.2639273 182.378885,51.2564941 182.373053,51.2487179 C182.357958,51.2284768 182.342749,51.2085788 182.326397,51.189367 C182.323881,51.186508 182.321251,51.1837635 182.318736,51.1809046 C182.215018,51.0618596 182.087516,50.9648855 181.943204,50.8965004 C181.941031,50.8954712 181.938973,50.894442 181.9368,50.8934128 C181.909242,50.8806049 181.881111,50.8689405 181.852409,50.8583054 C181.849664,50.8572762 181.846806,50.856247 181.844061,50.8552177 C181.815244,50.8448113 181.785856,50.8353197 181.75601,50.8272004 C181.655266,50.8003267 181.556009,50.7856891 181.453321,50.7856891 C181.35029,50.7856891 181.251032,50.8004411 181.15612,50.8259425 C181.1209,50.8354341 181.091283,50.8449257 181.062123,50.8555608 C181.059722,50.8564757 181.05732,50.8572762 181.054919,50.858191 C181.025874,50.8689405 180.997514,50.8807192 180.969613,50.8936415 C180.967783,50.894442 180.965953,50.8953568 180.964124,50.8962717 C180.819354,50.9646568 180.69128,51.0620884 180.587334,51.1815907 C180.585047,51.1842209 180.582532,51.1866224 180.580359,51.189367 C180.563778,51.2086932 180.548455,51.2288199 180.533246,51.2492897 C180.527643,51.2567228 180.521925,51.264156 180.516436,51.2717035 C180.502943,51.2909154 180.490135,51.3105847 180.477785,51.3307114 C180.471953,51.3400886 180.466121,51.3496945 180.460404,51.3593005 C180.448969,51.3791985 180.437991,51.3993252 180.427699,51.4199093 C180.422439,51.4303157 180.417522,51.4408365 180.41249,51.4513573 C180.402885,51.4722845 180.393508,51.4932117 180.38516,51.5148251 C180.380929,51.5256889 180.377041,51.5368958 180.373039,51.5478741 C180.365263,51.5698305 180.357602,51.5916725 180.351083,51.6142007 C180.347653,51.6259794 180.344908,51.6381012 180.341935,51.6499943 C180.336332,51.672065 180.330729,51.6940214 180.326269,51.7165496 C180.325926,51.7186081 180.32524,51.7204378 180.324897,51.7224962 C180.149252,52.6571305 179.70065,53.5069124 179.027232,54.1801281 C178.355072,54.8523147 177.505209,55.3007058 176.569811,55.4765859 C176.026983,55.5785917 175.633841,56.0525987 175.633841,56.6048255 C175.633841,57.1570522 176.027097,57.6309448 176.569811,57.733065 C178.490122,58.0938593 179.963888,59.567798 180.324783,61.4880696 C180.426899,62.0309191 180.901001,62.4240762 181.453207,62.4240762 C182.005412,62.4240762 182.4794,62.0306904 182.581402,61.4879552 C182.756932,60.5527491 183.205305,59.7030816 183.877809,59.030552 C184.550998,58.3573363 185.401089,57.9087164 186.336144,57.733065 C186.878973,57.6311735 187.272229,57.1570522 187.272229,56.6047111 C187.272229,56.0524844 186.878973,55.5784774 186.336259,55.4763572 Z M182.661745,57.8146275 C182.21624,58.2599599 181.814372,58.7404773 181.459417,59.2499706 C180.742435,58.212874 179.844871,57.3153102 178.807947,56.598501 C179.317613,56.2433735 179.797613,55.84185 180.242945,55.3963451 C180.688967,54.9504953 181.091181,54.469633 181.446653,53.9597947 C182.163463,54.9965463 183.061371,55.8944551 184.098123,56.6112642 C183.588285,56.9663918 183.107595,57.3686052 182.661745,57.8146275 Z" id="Shape" fill-rule="nonzero"></path>
                        </g>
                    </g>
                </g>
            </g>
        </g>
    </g>
</svg>