<?xml version="1.0" encoding="UTF-8"?>
<svg width="201px" height="61px" viewBox="0 0 201 61" version="1.1" xmlns="http://www.w3.org/2000/svg" xmlns:xlink="http://www.w3.org/1999/xlink">
    <!-- Generator: Sketch 56.2 (81672) - https://sketch.com -->
    <title>download/google play</title>
    <desc>Created with Sketch.</desc>
    <g id="2.1-dashboard/account" stroke="none" stroke-width="1" fill="none" fill-rule="evenodd">
        <g id="dashboard/account/goals/D---1.0-Goals" transform="translate(-740.000000, -1140.000000)">
            <g id="section/waitlist" transform="translate(0.000000, 765.000000)">
                <g id="button-group" transform="translate(499.000000, 374.346049)">
                    <g id="download/app-store" transform="translate(241.322017, 0.822601)">
                        <rect id="Rectangle" stroke="#EDEDED" fill="#FFFFFF" fill-rule="nonzero" x="0.5" y="0.5" width="199" height="59" rx="7"></rect>
                        <g id="Group-42" fill-rule="evenodd" transform="translate(21.000000, 9.000000)" fill="#003647">
                            <path d="M34.0883404,28.7139506 C33.1729649,30.7427529 32.7348308,31.648125 31.5566412,33.4409738 C29.9118155,35.9443343 27.5945435,39.0617703 24.7231412,39.0879506 C22.1708941,39.1114797 21.5156814,37.4269971 18.0526987,37.446218 C14.5900473,37.4647762 13.8665626,39.1174448 11.3139841,39.0941646 C8.4425818,39.0674041 6.2462772,36.252532 4.60178295,33.7495029 C0.00336340996,26.7501017 -0.476860728,18.5358052 2.35874847,14.1690087 C4.37443046,11.0654913 7.5530569,9.24911337 10.5427753,9.24911337 C13.5865148,9.24911337 15.5001201,10.9183517 18.0165741,10.9183517 C20.4574649,10.9183517 21.9455301,9.24646221 25.4645224,9.24646221 C28.1241489,9.24646221 30.9425243,10.6943285 32.9509151,13.1993459 C26.371281,16.8042645 27.4397715,26.2019738 34.0883404,28.7139506 Z M22.7948872,6.45028081 C21.4251381,8.20866453 19.0664389,9.57003663 16.786617,9.49944942 C16.3703565,7.23303663 17.4391784,4.90067616 18.7336956,3.32787384 C20.1604485,1.59600174 22.6039906,0.267106395 24.6922531,0.123280814 C25.0442186,2.49176337 24.0725021,4.80954244 22.7948872,6.45028081 Z" id="Combined-Shape"></path>
                            <path d="M53.6599644,20.2510517 C53.423995,21.2077901 53.170792,22.113825 52.9043322,22.9525866 L51.1537843,28.1269936 L56.206246,28.1269936 L54.4308418,22.986389 C54.1226234,22.0150692 53.8823456,21.116325 53.6599644,20.2510517 Z M52.0969989,17.0633599 L55.3777019,17.0633599 L61.9931291,36.4513134 L58.8930487,36.4513134 L56.8707383,30.4981273 L50.4929375,30.4981273 L48.5266368,36.4513134 L45.5100736,36.4513134 L52.0969989,17.0633599 Z M69.785818,24.5177669 C68.1393352,24.5177669 66.6870632,25.6885866 66.249592,27.3671041 C66.2379923,27.4446506 66.2220843,27.5248483 66.2075019,27.6050459 C66.1620977,27.8562436 66.1143736,28.1153948 66.1143736,28.3291448 L66.1143736,30.6880169 C66.1143736,31.059511 66.1504981,31.388918 66.2184387,31.6374645 C66.6141513,33.2427436 68.033613,34.3595459 69.6744617,34.3595459 C72.0779023,34.3595459 73.5712701,32.4364587 73.5712701,29.3405634 C73.5712701,26.9402669 72.4010345,24.5177669 69.785818,24.5177669 Z M70.5165939,22.0893017 C72.2048352,22.0893017 73.7353218,22.7948424 74.8280057,24.0760169 C75.9435575,25.3850285 76.5321552,27.1669413 76.5321552,29.227889 C76.5321552,31.559918 75.8547375,33.512168 74.5695,34.8698948 C73.4184866,36.0881041 71.8389502,36.759511 70.1241954,36.759511 C68.4777126,36.759511 67.0244464,36.1255517 66.1143736,35.0365866 L66.1143736,42.0104703 L63.1806648,42.0104703 L63.1806648,27.0665285 C63.1806648,25.1682959 63.1478544,23.8460285 63.0686456,22.6447203 L63.0527375,22.3981622 L65.7358946,22.3981622 L65.8528851,24.3265517 C66.9183927,22.8604587 68.518477,22.0893017 70.5165939,22.0893017 Z M84.8924962,24.5177669 C83.245682,24.5177669 81.7927471,25.6885866 81.356933,27.3671041 C81.3436762,27.4446506 81.3290939,27.5235227 81.3145115,27.6027262 C81.268113,27.8539238 81.2210517,28.1144006 81.2210517,28.3291448 L81.2210517,30.6880169 C81.2210517,31.059511 81.2565134,31.388918 81.324454,31.6374645 C81.7195038,33.2427436 83.1402912,34.3595459 84.780477,34.3595459 C87.182592,34.3595459 88.676954,32.4364587 88.676954,29.3405634 C88.676954,26.9402669 87.506387,24.5177669 84.8924962,24.5177669 Z M85.6226092,22.0893017 C87.3108506,22.0893017 88.8413372,22.7948424 89.9333582,24.0760169 C91.04891,25.3850285 91.6385019,27.1669413 91.6385019,29.227889 C91.6385019,31.559918 90.96009,33.512168 89.6771724,34.8698948 C88.5241705,36.0881041 86.9443027,36.759511 85.2298793,36.759511 C83.5833966,36.759511 82.1311245,36.1255517 81.2210517,35.0365866 L81.2210517,42.0104703 L78.2873429,42.0104703 L78.2873429,27.0665285 C78.2873429,25.1682959 78.2538697,23.8473541 78.1743295,22.6447203 L78.1594157,22.3981622 L80.8415785,22.3981622 L80.958569,24.3265517 C82.0250709,22.8604587 83.6251552,22.0893017 85.6226092,22.0893017 Z M104.54745,25.278286 C108.062466,26.665507 109.495847,28.3390535 109.495847,31.0531814 C109.495847,33.6854547 107.707849,36.7598093 102.665993,36.7598093 C100.900199,36.7598093 98.815914,36.2246058 97.7083163,35.4852628 L97.5638182,35.3894895 L98.3512665,32.8848035 L98.6054638,33.04785 C99.7949216,33.8100593 101.336345,34.246507 102.83369,34.246507 C105.133065,34.246507 106.56247,33.0992163 106.56247,31.2496988 C106.56247,29.6155884 105.635826,28.6624953 103.146217,27.7319372 C99.6335213,26.4550709 97.9973125,24.6731581 97.9973125,22.1237337 C97.9973125,18.9628849 100.610209,16.7544663 104.351251,16.7544663 C106.731161,16.7544663 108.131732,17.4248791 108.623224,17.7128616 L108.786945,17.8086349 L107.959063,20.2566523 L107.7105,20.1032163 C107.38306,19.8997395 106.16742,19.2386058 104.26674,19.2386058 C101.963056,19.2386058 100.932678,20.5469547 100.932678,21.844036 C100.932678,23.3843616 101.809609,24.2181523 104.54745,25.278286 Z M114.77639,19.0578297 L114.77639,22.3979634 L118.315268,22.3979634 L118.315268,24.7422541 L114.77639,24.7422541 L114.77639,31.8390855 C114.77639,33.5275448 115.261917,34.2466727 116.39868,34.2466727 C117.011471,34.2466727 117.39227,34.2029285 117.763126,34.0889285 L118.044499,34.0027657 L118.18502,36.3513645 L118.020637,36.4093587 C117.649781,36.5405913 116.862001,36.7596436 115.753078,36.7596436 C114.578202,36.7596436 113.570361,36.3639576 112.914817,35.6454924 C112.231103,34.8763238 111.899022,33.6597715 111.899022,31.9235913 L111.899022,24.7422541 L109.792863,24.7422541 L109.792863,22.3979634 L111.899022,22.3979634 L111.899022,19.9612134 L114.77639,19.0578297 Z M125.500203,24.4051256 C122.78987,24.4051256 121.576218,26.9409628 121.576218,29.4536023 C121.576218,32.3450267 123.191216,34.4437535 125.416023,34.4437535 L125.444525,34.4437535 C127.701147,34.4437535 129.34067,32.3095674 129.34067,29.3690965 C129.34067,26.9777477 128.139281,24.4051256 125.500203,24.4051256 Z M125.585046,22.0893349 C127.561952,22.0893349 129.258479,22.7836081 130.489032,24.0956023 C131.712295,25.4019628 132.358228,27.1958058 132.358228,29.2842593 C132.358228,34.4205558 128.745776,36.7595442 125.387521,36.7595442 L125.360345,36.7595442 C121.387973,36.7595442 118.614339,33.7895791 118.614339,29.5364512 C118.614339,25.1527535 121.480439,22.0893349 125.585046,22.0893349 Z M141.343523,22.2255052 L141.343523,24.963825 L141.02967,24.9313483 C140.779119,24.906825 140.542818,24.8823017 140.242554,24.8823017 C138.69881,24.8823017 137.486816,26.0428483 137.156061,27.8383483 C137.103034,28.1836622 137.075195,28.5684122 137.075195,28.9753657 L137.075195,36.4513134 L134.141818,36.4513134 L134.168994,26.8686855 C134.168994,25.1093076 134.136515,23.8059297 134.058301,22.6447203 L134.041398,22.3981622 L136.673849,22.3981622 L136.760017,24.450825 C137.526255,22.9926855 138.903295,22.0893017 140.43809,22.0893017 C140.698253,22.0893017 140.909034,22.1164762 141.16754,22.1807669 L141.343523,22.2255052 Z M147.743396,24.2931471 C145.54908,24.2931471 144.489538,26.1512808 144.216781,27.8453738 L150.90744,27.8453738 C150.888549,27.2382576 150.741069,25.9733215 149.896948,25.1146762 C149.361708,24.5695308 148.636567,24.2931471 147.743396,24.2931471 Z M147.938933,22.0615308 C152.234436,22.0615308 153.757963,25.6349669 153.757963,28.6950715 C153.757963,29.2196703 153.729461,29.6213215 153.670138,29.9195773 L153.632025,30.1068157 L144.163092,30.0783157 C144.343051,33.9109029 147.282394,34.3314436 148.557026,34.3314436 C150.370212,34.3314436 151.433069,33.9993855 152.232448,33.6742866 L152.477034,33.5755308 L153.040775,35.7610831 L152.86413,35.8409494 C151.964994,36.2469087 150.428542,36.7317401 148.219643,36.7317401 C144.019588,36.7317401 141.30594,33.9513331 141.30594,29.6491587 C141.30594,25.181618 144.033839,22.0615308 147.938933,22.0615308 Z M46.8416102,11.9470465 C47.1743534,12.0013953 47.6585546,12.0013953 48.1732462,12.0013953 C50.9869818,12.0146512 52.5144856,10.5856744 52.5144856,8.1078314 C52.5297308,5.91598256 51.1682672,4.56786628 48.3846906,4.56786628 C47.7046216,4.56786628 47.1895987,4.62287791 46.8416102,4.69048256 L46.8416102,11.9470465 Z M45.5099741,3.81924419 C46.32725,3.71054651 47.2804071,3.62869186 48.3240412,3.62869186 C50.2154416,3.62869186 51.56166,4.01012791 52.454499,4.7590814 C53.3771657,5.50737209 53.9067711,6.58275 53.9067711,8.06706977 C53.9067711,9.56464535 53.3771657,10.7894826 52.4395852,11.6338779 C51.471183,12.4915291 49.8976121,12.9544884 47.9157347,12.9544884 C46.9625776,12.9544884 46.1910374,12.927314 45.5099741,12.8454593 L45.5099741,3.81924419 Z M58.6703692,12.1237465 C59.9410243,12.1237465 60.8945128,11.0483686 60.8945128,9.55046163 C60.8945128,8.43432209 60.274099,7.03218837 58.7008596,7.03218837 C57.1422025,7.03218837 56.4614707,8.33921163 56.4614707,9.59155465 C56.4614707,11.0347814 57.3692236,12.1237465 58.6551239,12.1237465 L58.6703692,12.1237465 Z M58.6249649,13.0224907 C56.6580013,13.0224907 55.1152523,11.7157988 55.1152523,9.63264767 C55.1152523,7.42721163 56.733896,6.13377558 58.7459324,6.13377558 C60.8491086,6.13377558 62.2705588,7.50840349 62.2705588,9.5100314 C62.2705588,11.9607 60.3798213,13.0224907 58.6405416,13.0224907 L58.6249649,13.0224907 Z M64.376983,6.28323488 L65.360299,9.61906047 C65.5568297,10.3540953 65.7536918,11.0483686 65.889573,11.729386 L65.9349772,11.729386 C66.1013489,11.0619558 66.3436151,10.3540953 66.58555,9.63264767 L67.7809734,6.28323488 L68.9005021,6.28323488 L70.0352761,9.57763605 C70.3073699,10.3540953 70.5191458,11.0619558 70.6855174,11.729386 L70.7309216,11.729386 C70.8518891,11.0619558 71.0490826,10.3676826 71.290686,9.59155465 L72.3343201,6.28323488 L73.6507109,6.28323488 L71.290686,12.8727 L70.0803489,12.8727 L68.9611515,9.72808953 C68.7043029,8.97913605 68.4918642,8.32562442 68.3099159,7.54949651 L68.2800883,7.54949651 C68.0984715,8.33921163 67.8717818,9.03348488 67.6142703,9.74167674 L66.4344236,12.8727 L65.2244178,12.8727 L63.0151879,6.28323488 L64.376983,6.28323488 Z M74.9829766,8.06706977 C74.9829766,7.37246512 74.9677314,6.82831395 74.9219958,6.2831686 L76.1025054,6.2831686 L76.1777372,7.3592093 L76.2082276,7.3592093 C76.5714613,6.7464593 77.4185648,6.1337093 78.6285705,6.1337093 C79.642377,6.1337093 81.2156165,6.67819186 81.2156165,8.93830814 L81.2156165,12.8726337 L79.8849747,12.8726337 L79.8849747,9.07418023 C79.8849747,8.01238953 79.4455149,7.11430814 78.190105,7.11430814 C77.3277563,7.11430814 76.6466931,7.67237791 76.4050897,8.33914535 C76.3444402,8.48893605 76.3142812,8.70666279 76.3142812,8.89754651 L76.3142812,12.8726337 L74.9829766,12.8726337 L74.9829766,8.06706977 Z M83.3792433,12.8726337 L83.3792433,3.20682558 L84.7108793,3.20682558 L84.7108793,12.8726337 L83.3792433,12.8726337 Z M89.9446596,12.1237465 C91.2156462,12.1237465 92.1691347,11.0483686 92.1691347,9.55046163 C92.1691347,8.43432209 91.5487209,7.03218837 89.9758128,7.03218837 C88.4171557,7.03218837 87.7360925,8.33921163 87.7360925,9.59155465 C87.7360925,11.0347814 88.6438454,12.1237465 89.9300772,12.1237465 L89.9446596,12.1237465 Z M89.8999182,13.0224907 C87.9336174,13.0224907 86.3902056,11.7157988 86.3902056,9.63264767 C86.3902056,7.42721163 88.0081864,6.13377558 90.0208856,6.13377558 C92.123399,6.13377558 93.5455121,7.50840349 93.5455121,9.5100314 C93.5455121,11.9607 91.6544431,13.0224907 89.914832,13.0224907 L89.8999182,13.0224907 Z M99.0838983,9.51013081 C97.6312948,9.4829564 95.9824921,9.71427035 95.9824921,10.9941192 C95.9824921,11.7835029 96.5571703,12.1377645 97.2229883,12.1377645 C98.1910592,12.1377645 98.811473,11.5929506 99.022586,11.0348808 C99.0689845,10.9122645 99.0838983,10.7757297 99.0838983,10.6534448 L99.0838983,9.51013081 Z M100.384381,11.2937006 C100.384381,11.8650262 100.414871,12.4230959 100.490435,12.872468 L99.2950113,12.872468 L99.1737125,12.0426541 L99.1293025,12.0426541 C98.7355784,12.5596308 97.9332163,13.0225901 96.890245,13.0225901 C95.407814,13.0225901 94.6511875,12.0834157 94.6511875,11.1299913 C94.6511875,9.53730523 96.2240956,8.66573547 99.052745,8.67932267 L99.052745,8.54345058 C99.052745,7.99896802 98.8870362,7.00511337 97.38936,7.01870058 C96.6927201,7.01870058 95.9824921,7.1953343 95.468132,7.50850291 L95.1652163,6.70553198 C95.7703849,6.36552035 96.6625611,6.133875 97.5858906,6.133875 C99.8398619,6.133875 100.384381,7.50850291 100.384381,8.82944477 L100.384381,11.2937006 Z M107.510457,8.96548256 C107.510457,8.80210465 107.495543,8.61155233 107.449476,8.44817442 C107.253608,7.69955233 106.52714,7.07321512 105.528911,7.07321512 C104.15187,7.07321512 103.334594,8.16218023 103.334594,9.60573837 C103.334594,10.9531919 104.076639,12.0554128 105.49842,12.0554128 C106.391259,12.0554128 107.208204,11.5112616 107.449476,10.626436 C107.495543,10.4633895 107.510457,10.2993488 107.510457,10.1091279 L107.510457,8.96548256 Z M108.84143,3.20682558 L108.84143,11.1705872 C108.84143,11.7561628 108.857338,12.4232616 108.902079,12.8726337 L107.707319,12.8726337 L107.647001,11.7293198 L107.61651,11.7293198 C107.208204,12.4643547 106.330278,13.0224244 105.135518,13.0224244 C103.365085,13.0224244 101.988376,11.6749709 101.988376,9.67334302 C101.973131,7.46757558 103.501629,6.1337093 105.271068,6.1337093 C106.406504,6.1337093 107.162799,6.6109186 107.480629,7.12756395 L107.510457,7.12756395 L107.510457,3.20682558 L108.84143,3.20682558 Z M117.284029,12.1237465 C118.554684,12.1237465 119.507509,11.0483686 119.507509,9.55046163 C119.507509,8.43432209 118.88809,7.03218837 117.314519,7.03218837 C115.755862,7.03218837 115.075461,8.33921163 115.075461,9.59155465 C115.075461,11.0347814 115.982883,12.1237465 117.268452,12.1237465 L117.284029,12.1237465 Z M117.237961,13.0224907 C115.271661,13.0224907 113.728249,11.7157988 113.728249,9.63264767 C113.728249,7.42721163 115.347887,6.13377558 117.35926,6.13377558 C119.462768,6.13377558 120.884218,7.50840349 120.884218,9.5100314 C120.884218,11.9607 118.992818,13.0224907 117.254201,13.0224907 L117.237961,13.0224907 Z M122.564704,8.06706977 C122.564704,7.37246512 122.549128,6.82831395 122.503724,6.2831686 L123.683902,6.2831686 L123.760128,7.3592093 L123.789955,7.3592093 C124.153189,6.7464593 124.999961,6.1337093 126.210298,6.1337093 C127.224105,6.1337093 128.797676,6.67819186 128.797676,8.93830814 L128.797676,12.8726337 L127.46604,12.8726337 L127.46604,9.07418023 C127.46604,8.01238953 127.027906,7.11430814 125.771501,7.11430814 C124.909816,7.11430814 124.228421,7.67237791 123.986155,8.33914535 C123.925837,8.48893605 123.895678,8.70666279 123.895678,8.89754651 L123.895678,12.8726337 L122.564704,12.8726337 L122.564704,8.06706977 Z M135.772227,4.70456686 L135.772227,6.2833343 L137.677878,6.2833343 L137.677878,7.1953343 L135.772227,7.1953343 L135.772227,10.7488866 C135.772227,11.5654448 136.029739,12.0287355 136.77112,12.0287355 C137.133359,12.0287355 137.345798,12.001561 137.54266,11.9468808 L137.602647,12.8588808 C137.345798,12.9407355 136.937491,13.0225901 136.4228,13.0225901 C135.802717,13.0225901 135.30294,12.8317064 134.98511,12.5188692 C134.621876,12.1513517 134.471081,11.5654448 134.471081,10.7893169 L134.471081,7.1953343 L133.336307,7.1953343 L133.336307,6.2833343 L134.471081,6.2833343 L134.471081,5.07175291 L135.772227,4.70456686 Z M139.176383,3.20682558 L140.507356,3.20682558 L140.507356,7.31811628 L140.538178,7.31811628 C140.749291,6.97777326 141.082034,6.66493605 141.491667,6.47405233 C141.884728,6.25665698 142.35269,6.1337093 142.85313,6.1337093 C143.835784,6.1337093 145.409354,6.67819186 145.409354,8.95189535 L145.409354,12.8726337 L144.078381,12.8726337 L144.078381,9.08809884 C144.078381,8.01238953 143.639584,7.12756395 142.383843,7.12756395 C141.521494,7.12756395 140.856008,7.67237791 140.598496,8.32555814 C140.522602,8.48893605 140.507356,8.66590116 140.507356,8.89754651 L140.507356,12.8726337 L139.176383,12.8726337 L139.176383,3.20682558 Z M152.218164,8.92468779 C152.232415,8.1757343 151.869844,6.97774012 150.387081,6.97774012 C149.024955,6.97774012 148.450277,8.09421105 148.344555,8.92468779 L152.218164,8.92468779 Z M148.329309,9.78233895 C148.360131,11.4025308 149.494905,12.0696297 150.825878,12.0696297 C151.778704,12.0696297 152.368959,11.9195076 152.853823,11.7425424 L153.095758,12.5866064 C152.625807,12.7771587 151.809194,13.0088041 150.644593,13.0088041 C148.404873,13.0088041 147.04374,11.6606878 147.04374,9.68722849 C147.04374,7.68593198 148.360131,6.12008895 150.492472,6.12008895 C152.88365,6.12008895 153.50307,8.0123564 153.50307,9.22426919 C153.50307,9.46950174 153.488819,9.66005407 153.458329,9.79592616 L148.329309,9.78233895 Z" id="Combined-Shape"></path>
                        </g>
                    </g>
                </g>
            </g>
        </g>
    </g>
</svg>