<?xml version="1.0" encoding="UTF-8"?>
<svg width="201px" height="61px" viewBox="0 0 201 61" version="1.1" xmlns="http://www.w3.org/2000/svg" xmlns:xlink="http://www.w3.org/1999/xlink">
    <!-- Generator: Sketch 56.2 (81672) - https://sketch.com -->
    <title>download/google play</title>
    <desc>Created with Sketch.</desc>
    <g id="2.1-dashboard/account" stroke="none" stroke-width="1" fill="none" fill-rule="evenodd">
        <g id="dashboard/account/goals/D---1.0-Goals" transform="translate(-499.000000, -1140.000000)">
            <g id="section/waitlist" transform="translate(0.000000, 765.000000)">
                <g id="button-group" transform="translate(499.000000, 374.346049)">
                    <g id="download/google-play" transform="translate(0.322017, 0.822601)">
                        <rect id="Rectangle" stroke="#EDEDED" stroke-width="1" fill="#FFFFFF" fill-rule="nonzero" x="0.5" y="0.5" width="199" height="59" rx="7"></rect>
                        <path d="M70.8968429,15.8183692 C70.8968429,17.0091463 70.530114,17.9628376 69.8076581,18.6740952 C68.9770171,19.5172652 67.8951669,19.9415242 66.569442,19.9415242 C65.3023937,19.9415242 64.2205434,19.5101348 63.3330595,18.6598344 C62.443742,17.7970557 62,16.738191 62,15.4707621 C62,14.2033331 62.443742,13.1444684 63.3330595,12.2888202 C64.2205434,11.4313893 65.3023937,11 66.569442,11 C67.2002157,11 67.801651,11.1265646 68.3755818,11.3618679 C68.9476788,11.5989538 69.4134245,11.9198219 69.7508151,12.3155592 L68.9843517,13.0678166 C68.3957518,12.392211 67.5944492,12.0588647 66.569442,12.0588647 C65.6452852,12.0588647 64.8439825,12.3726024 64.1637005,13.0054256 C63.4907529,13.6400314 63.1533624,14.4618102 63.1533624,15.4707621 C63.1533624,16.479714 63.4907529,17.3086232 64.1637005,17.943229 C64.8439825,18.5689218 65.6452852,18.8897899 66.569442,18.8897899 C67.5504418,18.8897899 68.3755818,18.5689218 69.0265255,17.9360986 C69.4555983,17.5171875 69.6994731,16.9396249 69.7636506,16.2016283 L66.569442,16.2016283 L66.569442,15.1712852 L70.8308317,15.1712852 C70.8821737,15.3941103 70.8968429,15.6098049 70.8968429,15.8183692 Z M77.65749,12.2460378 L73.6546441,12.2460378 L73.6546441,14.9555905 L77.2632564,14.9555905 L77.2632564,15.9859336 L73.6546441,15.9859336 L73.6546441,18.6954864 L77.65749,18.6954864 L77.65749,19.7454381 L72.5214519,19.7454381 L72.5214519,11.1960861 L77.65749,11.1960861 L77.65749,12.2460378 Z M82.4286328,19.7454381 L81.2954406,19.7454381 L81.2954406,12.2460378 L78.8401906,12.2460378 L78.8401906,11.1960861 L84.8857164,11.1960861 L84.8857164,12.2460378 L82.4286328,12.2460378 L82.4286328,19.7454381 Z M89.2607921,19.7454381 L89.2607921,11.1960861 L90.3921507,11.1960861 L90.3921507,19.7454381 L89.2607921,19.7454381 Z M95.4071683,19.7454381 L94.2831442,19.7454381 L94.2831442,12.2460378 L91.8187261,12.2460378 L91.8187261,11.1960861 L97.8715864,11.1960861 L97.8715864,12.2460378 L95.4071683,12.2460378 L95.4071683,19.7454381 Z M109.317195,18.6455736 C108.449881,19.5101348 107.375366,19.9415242 106.093648,19.9415242 C104.804596,19.9415242 103.73008,19.5101348 102.862767,18.6455736 C101.997286,17.7827949 101.56638,16.7239302 101.56638,15.4707621 C101.56638,14.2175939 101.997286,13.1587292 102.862767,12.2959506 C103.73008,11.4313893 104.804596,11 106.093648,11 C107.368031,11 108.442547,11.4313893 109.30986,12.303081 C110.182675,13.17299 110.613582,14.2247243 110.613582,15.4707621 C110.613582,16.7239302 110.182675,17.7827949 109.317195,18.6455736 Z M103.700742,17.9289682 C104.35352,18.5689218 105.147488,18.8897899 106.093648,18.8897899 C107.032474,18.8897899 107.833777,18.5689218 108.47922,17.9289682 C109.130163,17.2890146 109.460219,16.4672358 109.460219,15.4707621 C109.460219,14.4742884 109.130163,13.6525096 108.47922,13.012556 C107.833777,12.3726024 107.032474,12.0517343 106.093648,12.0517343 C105.147488,12.0517343 104.35352,12.3726024 103.700742,13.012556 C103.049798,13.6525096 102.719742,14.4742884 102.719742,15.4707621 C102.719742,16.4672358 103.049798,17.2890146 103.700742,17.9289682 Z M112.203351,19.7454381 L112.203351,11.1960861 L113.578585,11.1960861 L117.854644,17.845186 L117.904152,17.845186 L117.854644,16.2016283 L117.854644,11.1960861 L118.986002,11.1960861 L118.986002,19.7454381 L117.805135,19.7454381 L113.327375,12.7683397 L113.277867,12.7683397 L113.327375,14.4190278 L113.327375,19.7454381 L112.203351,19.7454381 Z" id="Combined-Shape" stroke="#003647" stroke-width="0.625" fill="#003647" fill-rule="nonzero"></path>
                        <path d="M101.746077,43.576441 C98.3006592,43.576441 95.486015,41.0273223 95.486015,37.5102515 C95.486015,34.0217023 98.3006592,31.4458446 101.746077,31.4458446 C105.19883,31.4458446 108.013474,34.0217023 108.013474,37.5102515 C108.013474,41.0273223 105.19883,43.576441 101.746077,43.576441 Z M101.746077,33.8345292 C99.8555897,33.8345292 98.2291471,35.3515223 98.2291471,37.5102515 C98.2291471,39.6975023 99.8555897,41.1877563 101.746077,41.1877563 C103.636565,41.1877563 105.270342,39.6975023 105.270342,37.5102515 C105.270342,35.3515223 103.636565,33.8345292 101.746077,33.8345292 L101.746077,33.8345292 Z M88.0872596,43.576441 C84.6345071,43.576441 81.8271975,41.0273223 81.8271975,37.5102515 C81.8271975,34.0217023 84.6345071,31.4458446 88.0872596,31.4458446 C91.5381785,31.4458446 94.3473218,34.0217023 94.3473218,37.5102515 C94.3473218,41.0273223 91.5381785,43.576441 88.0872596,43.576441 Z M88.0872596,33.8345292 C86.1949385,33.8345292 84.562995,35.3515223 84.562995,37.5102515 C84.562995,39.6975023 86.1949385,41.1877563 88.0872596,41.1877563 C89.977747,41.1877563 91.6041897,39.6975023 91.6041897,37.5102515 C91.6041897,35.3515223 89.977747,33.8345292 88.0872596,33.8345292 Z M71.8338352,41.7171887 L71.8338352,39.1395484 L78.1654095,39.1395484 C77.9802114,37.6992071 77.4851274,36.6403424 76.7259986,35.9023458 C75.8018418,35.0110456 74.3624309,34.0217023 71.8338352,34.0217023 C67.9373407,34.0217023 64.8861564,37.0788622 64.8861564,40.8668883 C64.8861564,44.6549143 67.9373407,47.7120742 71.8338352,47.7120742 C73.9406927,47.7120742 75.4736194,46.9116866 76.6049781,45.8742131 L78.4734617,47.690683 C76.8910266,49.1595458 74.7860028,50.2879319 71.8338352,50.2879319 C66.4905953,50.2879319 62,46.0613861 62,40.8668883 C62,35.6723904 66.4905953,31.4458446 71.8338352,31.4458446 C74.7218252,31.4458446 76.8910266,32.3656664 78.5963159,34.0912237 C80.3437791,35.790042 80.8883715,38.1787267 80.8883715,40.1075004 C80.8883715,40.7064542 80.8370294,41.2572778 80.7453472,41.7171887 L71.8338352,41.7171887 Z M138.296112,39.7188935 C137.780858,41.0754525 136.191088,43.576441 132.952872,43.576441 C129.743994,43.576441 127.072374,41.1182349 127.072374,37.5102515 C127.072374,34.1126149 129.71649,31.4458446 133.260924,31.4458446 C136.126911,31.4458446 137.780858,33.1446628 138.46114,34.1340061 L136.334112,35.5119563 C135.624492,34.5030044 134.658161,33.8345292 133.260924,33.8345292 C131.872855,33.8345292 130.877187,34.4530916 130.239078,35.6723904 L138.583994,39.0290271 L138.296112,39.7188935 L138.296112,39.7188935 Z M129.788002,37.6992071 C129.71649,40.037979 131.656485,41.2358866 133.046388,41.2358866 C134.135573,41.2358866 135.05973,40.7064542 135.367782,39.948849 L129.788002,37.6992071 L129.788002,37.6992071 Z M123.005351,31.8148429 L125.748483,31.8148429 L125.748483,49.640848 L123.005351,49.640848 L123.005351,31.8148429 Z M118.512922,42.2252298 L118.42124,42.2252298 C117.805135,42.9347048 116.629769,43.576441 115.14085,43.576441 C112.01632,43.576441 109.159502,40.9096707 109.159502,37.4906429 C109.159502,34.0912237 112.01632,31.4458446 115.14085,31.4458446 C116.629769,31.4458446 117.805135,32.0929285 118.42124,32.8237948 L118.512922,32.8237948 L118.512922,31.9538857 C118.512922,29.6347224 117.238539,28.3886847 115.183024,28.3886847 C113.507073,28.3886847 112.467396,29.565201 112.038323,30.5545443 L109.652752,29.5865922 C110.340369,27.9786866 112.161178,26 115.183024,26 C118.399236,26 121.11303,27.8396437 121.11303,32.3157536 L121.11303,43.2074427 L118.512922,43.2074427 L118.512922,42.2252298 L118.512922,42.2252298 Z M115.375556,33.8345292 C113.485069,33.8345292 111.902634,35.3729135 111.902634,37.4906429 C111.902634,39.6279809 113.485069,41.1877563 115.375556,41.1877563 C117.238539,41.1877563 118.707288,39.6279809 118.707288,37.4906429 C118.707288,35.3729135 117.238539,33.8345292 115.375556,33.8345292 L115.375556,33.8345292 Z M151.138958,49.640848 L144.578178,49.640848 L144.578178,31.8148429 L147.313975,31.8148429 L147.313975,38.5691162 L151.138958,38.5691162 C154.177307,38.5691162 157.156979,40.7064542 157.156979,44.1058734 C157.156979,47.5035099 154.169972,49.640848 151.138958,49.640848 L151.138958,49.640848 Z M151.21047,41.0487135 L147.313975,41.0487135 L147.313975,47.1612507 L151.21047,47.1612507 C153.25315,47.1612507 154.419348,45.5123452 154.419348,44.1058734 C154.419348,42.7261406 153.25315,41.0487135 151.21047,41.0487135 Z M168.122173,43.6103104 C166.145504,43.6103104 164.089988,42.7617926 163.244678,40.8811491 L165.672424,39.8918058 C166.195012,40.8811491 167.155842,41.2020171 168.171681,41.2020171 C169.590922,41.2020171 171.030333,40.3731079 171.052336,38.9095929 L171.052336,38.7224198 C170.557252,39.0005055 169.497406,39.4122862 168.193685,39.4122862 C165.578908,39.4122862 162.914622,38.0129448 162.914622,35.4014351 C162.914622,33.0127504 165.056319,31.4743662 167.463894,31.4743662 C169.304873,31.4743662 170.320712,32.2818842 170.958821,33.2213147 L171.052336,33.2213147 L171.052336,31.8433645 L173.694618,31.8433645 L173.694618,38.68142 C173.694618,41.8419707 171.266873,43.6103104 168.122173,43.6103104 Z M167.792117,33.8416596 C166.897298,33.8416596 165.65042,34.273049 165.65042,35.3515223 C165.65042,36.7312551 167.20535,37.2606874 168.551245,37.2606874 C169.75595,37.2606874 170.320712,37.0022103 171.052336,36.6617336 C170.8378,35.0110456 169.376385,33.8416596 167.792117,33.8416596 L167.792117,33.8416596 Z M183.321251,43.2199209 L180.176551,35.4923477 L180.083035,35.4923477 L176.831984,43.2199209 L173.88165,43.2199209 L178.766479,32.420927 L175.979339,26.4117807 L178.837991,26.4117807 L186.365101,43.2199209 L183.321251,43.2199209 L183.321251,43.2199209 Z M158.660567,31.8148429 L161.403699,31.8148429 L161.403699,49.640848 L158.660567,49.640848 L158.660567,31.8148429 Z" id="path46" fill="#003647" fill-rule="nonzero" transform="translate(124.182551, 38.143966) scale(1, -1) translate(-124.182551, -38.143966) "></path>
                        <g id="triangle" stroke-width="1" fill-rule="evenodd" transform="translate(15.743906, 10.000000)" stroke="#003647">
                            <path d="M0.884986496,36.3793501 C0.45408005,35.9408304 0.204704404,35.2580944 0.204704404,34.3739245 L0.204704404,2.8361563 C0.204704404,1.95198644 0.45408005,1.26925045 0.884986496,0.830730724 L0.991337874,0.734470296 L19.170089,18.4000413 L19.170089,18.8171699 L0.991337874,36.4827409 L0.884986496,36.3793501 Z" id="path64" fill-rule="nonzero"></path>
                            <path d="M25.2229493,12.5085467 L19.170089,18.4000413 L19.170089,18.8171699 L25.2302839,24.7086646 L25.3659736,24.6320127 L32.5428579,20.6621614 C34.5910388,19.5355579 34.5910388,17.6816533 32.5428579,16.5479194 L25.3659736,12.5851985 L25.2229493,12.5085467 L25.2229493,12.5085467 Z" id="path78" fill-rule="nonzero"></path>
                            <path d="M25.3659736,12.5851985 L19.170089,18.6086056 L0.884986496,0.830730724 C1.56526859,0.135516525 2.67462348,0.0517343008 3.93617086,0.7469485 L25.3659736,12.5851985" id="path88" fill-rule="nonzero"></path>
                            <path d="M25.3659736,24.6320127 L3.93617086,36.4702627 C2.67462348,37.1583465 1.56526859,37.0745643 0.884986496,36.3793501 L19.170089,18.6086056 L25.3659736,24.6320127 Z" id="path104" fill-rule="nonzero"></path>
                        </g>
                    </g>
                </g>
            </g>
        </g>
    </g>
</svg>