<?xml version="1.0" encoding="UTF-8"?>
<svg width="200px" height="178px" viewBox="0 0 200 178" version="1.1" xmlns="http://www.w3.org/2000/svg" xmlns:xlink="http://www.w3.org/1999/xlink">
    <!-- Generator: Sketch 56.2 (81672) - https://sketch.com -->
    <title>Saving Icon</title>
    <desc>Created with Sketch.</desc>
    <g id="2.1-dashboard/account" stroke="none" stroke-width="1" fill="none" fill-rule="evenodd">
        <g id="dashboard/account/goals/D---1.0-Goals" transform="translate(-980.000000, -444.000000)">
            <g id="Savings" transform="translate(247.000000, 421.000000)">
                <g id="Saving-Graphic" transform="translate(721.000000, 0.000000)">
                    <g id="Saving-Icon" transform="translate(12.000000, 23.000000)">
                        <circle id="Oval" fill="#00ACE2" opacity="0.20249721" cx="122.95082" cy="77.0491803" r="77.0491803"></circle>
                        <path d="M167.141543,107.557684 C162.84721,97.6739034 156.916942,88.096861 149.418902,79.1332947 C140.35309,68.2270543 131.321359,60.933506 126.720289,57.5593879 L144.10211,25.3178147 C144.95416,23.7159606 144.681504,21.7392045 143.352306,20.4781705 C138.853481,16.0815923 134.082001,13.9344262 128.765209,13.9344262 C123.891483,13.9344262 119.426741,15.7748543 115.541393,17.4107904 C112.474012,18.6718244 109.577042,19.8987765 107.225384,19.8987765 C106.509662,19.8987765 105.896186,19.7965305 105.28271,19.5579564 C97.1711939,16.5928223 90.9341877,14.7523943 84.9016734,14.7523943 C77.2673051,14.7523943 70.7576429,17.8197744 64.3843086,24.3635186 C63.0551106,25.7267987 62.8506186,27.8739648 63.9071606,29.4758188 L82.6522613,57.7979619 C78.0171092,61.240244 69.1557888,68.4656283 60.2603865,79.1332947 C52.7964282,88.096861 46.832078,97.6739034 42.5377458,107.557684 C37.1527896,119.997614 34.4262295,132.982857 34.4262295,146.138509 C34.4262295,163.622576 48.672506,177.868852 66.1565727,177.868852 L143.522716,177.868852 C161.006782,177.868852 175.253059,163.622576 175.253059,146.138509 C175.253059,132.982857 172.526499,119.997614 167.141543,107.557684 Z M69.6550901,26.5460119 C73.998149,22.9524597 78.1540071,21.3712968 83.1335487,21.3712968 C88.4500518,21.3712968 94.4404778,23.0962018 102.415232,25.935108 C104.0626,26.5100764 105.822287,26.7975605 107.619415,26.7975605 C111.999914,26.7975605 116.193212,25.1445265 120.19931,23.5274281 C124.055646,21.9822007 127.724782,20.5088443 131.281598,20.5088443 C133.003845,20.5088443 135.437456,20.7963285 138.507549,22.8805887 L120.536271,54.9350738 L89.2362952,54.9350738 L69.6550901,26.5460119 Z M144.54298,171.328516 L64.509506,171.328516 C51.0765749,171.328516 40.1468934,160.38299 40.1468934,146.930586 C40.1468934,124.298062 48.4322971,102.830708 64.7210483,83.1287612 C75.0161031,70.6649848 85.4874431,62.9325002 88.6605764,60.6727787 L120.321396,60.6727787 C123.529786,62.8971921 133.965869,70.6649848 144.260924,83.1287612 C160.584932,102.830708 168.835418,124.262754 168.835418,146.930586 C168.905593,160.38299 157.975911,171.328516 144.54298,171.328516 Z" id="Shape-Copy" fill="#1B1464" fill-rule="nonzero"></path>
                        <path d="M132.133467,107.039128 C132.100151,105.281612 132.068349,103.621315 132.068349,102.015094 C132.068349,100.756731 131.051598,99.7365519 129.796787,99.7365519 C120.082073,99.7365519 112.685564,96.9360716 106.520242,90.9231506 C105.63827,90.062773 104.234748,90.0630768 103.353079,90.9231506 C97.188362,96.9360716 89.7930646,99.7365519 80.0789565,99.7365519 C78.8244485,99.7365519 77.8073944,100.756731 77.8073944,102.015094 C77.8073944,103.621618 77.7758954,105.282524 77.7422763,107.040343 C77.4309209,123.396023 77.004473,145.795916 104.192648,155.248828 C104.433736,155.332679 104.685123,155.374604 104.936509,155.374604 C105.187895,155.374604 105.439584,155.332679 105.68037,155.248828 C132.870665,145.795612 132.444823,123.395112 132.133467,107.039128 Z M105.107116,150.603124 C81.8534156,142.130162 82.2049984,123.569144 82.5170131,107.173099 C82.53574,106.189076 82.5538628,105.235349 82.5665488,104.300405 C91.6400438,103.916248 98.8958193,101.158378 105.107116,95.7311015 C111.319017,101.158378 118.576,103.916551 127.650099,104.300405 C127.662785,105.235046 127.680908,106.188167 127.699635,107.171584 C128.011348,123.568235 128.362629,142.129859 105.107116,150.603124 Z" id="Shape" fill="#1B1464" fill-rule="nonzero"></path>
                        <path d="M105.107116,150.603124 C81.8534156,142.130162 82.2049984,123.569144 82.5170131,107.173099 C82.53574,106.189076 82.5538628,105.235349 82.5665488,104.300405 C91.6400438,103.916248 98.8958193,101.158378 105.107116,95.7311015 C111.319017,101.158378 118.576,103.916551 127.650099,104.300405 C127.662785,105.235046 127.680908,106.188167 127.699635,107.171584 C128.011348,123.568235 128.362629,142.129859 105.107116,150.603124 Z" id="Path" fill="#00ACE2" fill-rule="nonzero"></path>
                        <path d="M107.113039,121.240141 L102.498086,121.240141 C100.819921,121.240141 99.4606073,119.847532 99.4606073,118.128262 C99.4606073,116.408992 100.819921,115.016383 102.498086,115.016383 L110.620403,115.016383 C111.727992,115.016383 112.634201,114.087977 112.634201,112.953259 C112.634201,111.818541 111.727992,110.890135 110.620403,110.890135 L106.810969,110.890135 L106.810969,108.018954 C106.810969,106.884236 105.90476,105.95583 104.797171,105.95583 C103.689583,105.95583 102.783374,106.884236 102.783374,108.018954 L102.783374,110.890135 L102.498086,110.890135 C98.6047433,110.890135 95.4330118,114.139555 95.4330118,118.128262 C95.4330118,122.116969 98.6047433,125.366389 102.498086,125.366389 L107.113039,125.366389 C108.791204,125.366389 110.150517,126.758998 110.150517,128.478268 C110.150517,130.197538 108.791204,131.590147 107.113039,131.590147 L98.8396864,131.590147 C97.7320976,131.590147 96.8258886,132.518553 96.8258886,133.653271 C96.8258886,134.787989 97.7320976,135.716395 98.8396864,135.716395 L102.800155,135.716395 L102.800155,138.656347 C102.800155,139.791065 103.706364,140.719471 104.813953,140.719471 C105.921542,140.719471 106.827751,139.791065 106.827751,138.656347 L106.827751,135.716395 L107.163384,135.716395 C107.180165,135.716395 107.196947,135.716395 107.213729,135.716395 C111.073508,135.664817 114.178113,132.432589 114.178113,128.478268 C114.178113,124.489561 111.006381,121.240141 107.113039,121.240141 Z" id="Path" fill="#1B1464" fill-rule="nonzero"></path>
                        <g id="stars" transform="translate(0.000000, 4.918033)" fill="#1B1464" fill-rule="nonzero">
                            <path d="M160.655738,41.8032787 C160.655738,42.5640369 160.132239,43.2248975 159.391336,43.3990779 C157.827242,43.7666496 157.551565,44.1444672 157.355613,45.3461193 C157.227219,46.131852 156.552914,46.7117059 155.75694,46.7209913 C155.750536,46.7213115 155.743812,46.7213115 155.737409,46.7213115 C154.949759,46.7213115 154.271932,46.1600282 154.126568,45.3839011 C153.900199,44.1761654 153.602749,43.7688908 152.071315,43.395876 C151.332012,43.2162525 150.813956,42.5512295 150.819672,41.7904713 C150.825803,41.0297131 151.354425,40.3730148 152.096289,40.2045979 C153.602429,39.8626408 153.922932,39.4166239 154.121766,38.2492316 C154.255602,37.4612577 154.938552,36.8852459 155.737729,36.8852459 L155.74061,36.8852459 C156.540747,36.8865266 157.223057,37.4654201 157.354652,38.2549948 C157.549644,39.4246285 157.855738,39.8463115 159.391336,40.2071593 C160.132239,40.3813397 160.655738,41.0422003 160.655738,41.8032787 L160.655738,41.8032787 Z" id="Path" opacity="0.699999988"></path>
                            <path d="M165.57377,4.91803279 C165.57377,5.67879098 165.050271,6.33965164 164.309368,6.51383197 C162.745275,6.88140369 162.469597,7.25922131 162.273646,8.46087344 C162.145252,9.24660607 161.470947,9.82646 160.674972,9.83574541 C160.668569,9.83606557 160.661845,9.83606557 160.655441,9.83606557 C159.867791,9.83606557 159.189964,9.2747823 159.044601,8.49865525 C158.818232,7.29091951 158.520782,6.88364492 156.989347,6.51063008 C156.250045,6.33100664 155.731989,5.66598361 155.737705,4.90522541 C155.743836,4.14446721 156.272458,3.48776893 157.014322,3.31935197 C158.520462,2.97739492 158.840965,2.53137803 159.039799,1.36398566 C159.173635,0.576011803 159.856585,0 160.655762,0 L160.658643,0 C161.45878,0.0012807377 162.14109,0.58017418 162.272685,1.36974893 C162.467676,2.53938262 162.773771,2.96106557 164.309368,3.32191344 C165.050271,3.49609377 165.57377,4.15695443 165.57377,4.91803279 L165.57377,4.91803279 Z" id="Path-Copy"></path>
                            <path d="M40.7498598,19.3627746 C36.8955956,20.2686444 35.380839,21.7532571 34.9619263,25.0362681 C34.8768096,25.7025294 34.3204828,26.2078954 33.6491551,26.2287077 C33.6347466,26.2292414 33.6203381,26.2295082 33.6061965,26.2295082 C32.9530128,26.2295082 32.3884144,25.7657668 32.2648752,25.1203179 C31.6042204,21.6700078 30.191924,20.2702454 26.4529275,19.3601064 C25.8368322,19.2101509 25.4051119,18.6562228 25.4098751,18.0222473 C25.4149844,17.388005 25.8555099,16.8407475 26.4737397,16.7003978 C30.2594304,15.8409554 31.6122251,14.4988272 32.2630074,10.9553952 C32.3822775,10.3064775 32.9479431,9.83606557 33.6064633,9.83606557 C33.6101988,9.83606557 33.6142012,9.83606557 33.6179367,9.83606557 C34.2815265,9.84140207 34.8450576,10.3230206 34.9541884,10.9775417 C35.5270582,14.4150442 36.9353523,15.8062682 40.7498598,16.7027992 C41.3670224,16.8479518 41.8032787,17.398678 41.8032787,18.0326535 C41.8032787,18.666629 41.3670224,19.2176219 40.7498598,19.3627746 Z M33.5488295,20.7377222 C33.8682171,20.2208828 34.2428372,19.7550069 34.6742906,19.3363589 C35.1847238,18.8405987 35.7744036,18.4080758 36.4606734,18.0302521 C35.7957494,17.6606998 35.2255478,17.23885 34.7335254,16.7566977 C34.3002042,16.3319128 33.9239832,15.8596331 33.6000596,15.3299861 C33.2694653,15.8817795 32.8871074,16.3684678 32.4484497,16.7999234 C31.9542927,17.2858111 31.3915621,17.7041923 30.7341092,18.0676075 C31.9388169,18.753347 32.8577568,19.623996 33.5488295,20.7377222 Z" id="Combined-Shape"></path>
                            <path d="M12.272019,60.0803836 C9.18860763,60.8050795 7.97680236,61.9927696 7.64167217,64.6191785 C7.57357882,65.1521875 7.12851738,65.5564803 6.5914552,65.5731301 C6.5799284,65.573557 6.56840166,65.5737705 6.55708836,65.5737705 C6.03454138,65.5737705 5.58286265,65.2027774 5.48403129,64.6864182 C4.95550747,61.9261701 3.82567035,60.8063602 0.834473134,60.078249 C0.341596933,59.9582846 -0.00377929818,59.5151422 3.12196896e-05,59.0079618 C0.00411867769,58.5005679 0.356539071,58.062762 0.851122943,57.9504822 C3.87967545,57.2629282 4.9619112,56.1892257 5.48253707,53.3544801 C5.57795314,52.835346 6.03048565,52.4590164 6.55730181,52.4590164 C6.5602902,52.4590164 6.5634921,52.4590164 6.56648049,52.4590164 C7.09735237,52.4632856 7.54817722,52.8485804 7.63548183,53.3721973 C8.09377774,56.1221993 9.22041296,57.2351785 12.272019,57.9524033 C12.7657491,58.0685254 13.1147541,58.5091063 13.1147541,59.0162867 C13.1147541,59.5234671 12.7657491,59.9642615 12.272019,60.0803836 Z M6.51119472,61.1803417 C6.76670481,60.7668702 7.06640087,60.3941695 7.41156363,60.0592511 C7.81991017,59.6626429 8.291654,59.3166246 8.84066986,59.0143656 C8.3087307,58.7187238 7.8525694,58.3812439 7.4589515,57.9955221 C7.11229451,57.6556942 6.81131767,57.2778704 6.5521788,56.8541528 C6.28770341,57.2955876 5.98181706,57.6849382 5.6308909,58.0301026 C5.23556533,58.4188128 4.78538082,58.7535177 4.2594185,59.0442499 C5.22318469,59.5928415 5.95833657,60.2893607 6.51119472,61.1803417 Z" id="Combined-Shape-Copy" opacity="0.699999988"></path>
                            <path d="M189.321199,73.1951377 C186.237788,73.9198336 185.025983,75.1075237 184.690853,77.7339326 C184.622759,78.2669416 184.177698,78.6712344 183.640636,78.6878842 C183.629109,78.6883111 183.617582,78.6885246 183.606269,78.6885246 C183.083722,78.6885246 182.632043,78.3175315 182.533212,77.8011723 C182.004688,75.0409242 180.874851,73.9211143 177.883653,73.1930031 C177.390777,73.0730387 177.045401,72.6298963 177.049212,72.1227159 C177.053299,71.615322 177.405719,71.1775161 177.900303,71.0652363 C180.928856,70.3776823 182.011092,69.3039798 182.531717,66.4692342 C182.627133,65.9501001 183.079666,65.5737705 183.606482,65.5737705 C183.609471,65.5737705 183.612672,65.5737705 183.615661,65.5737705 C184.146533,65.5780397 184.597358,65.9633345 184.684662,66.4869514 C185.142958,69.2369534 186.269593,70.3499326 189.321199,71.0671574 C189.814929,71.1832795 190.163934,71.6238604 190.163934,72.1310408 C190.163934,72.6382212 189.814929,73.0790156 189.321199,73.1951377 Z M183.560375,74.2950958 C183.815885,73.8816243 184.115581,73.5089236 184.460744,73.1740052 C184.869091,72.777397 185.340834,72.4313787 185.88985,72.1291197 C185.357911,71.8334779 184.90175,71.495998 184.508132,71.1102762 C184.161475,70.7704483 183.860498,70.3926245 183.601359,69.9689069 C183.336884,70.4103417 183.030997,70.7996923 182.680071,71.1448567 C182.284746,71.5335669 181.834561,71.8682718 181.308599,72.159004 C182.272365,72.7075956 183.007517,73.4041148 183.560375,74.2950958 Z" id="Combined-Shape-Copy-2"></path>
                        </g>
                    </g>
                </g>
            </g>
        </g>
    </g>
</svg>