<?xml version="1.0" encoding="UTF-8"?>
<svg width="180px" height="123px" viewBox="0 0 180 123" version="1.1" xmlns="http://www.w3.org/2000/svg" xmlns:xlink="http://www.w3.org/1999/xlink">
    <!-- Generator: Sketch 56.2 (81672) - https://sketch.com -->
    <title>Card</title>
    <desc>Created with Sketch.</desc>
    <defs>
        <filter x="-18.4%" y="-28.6%" width="136.9%" height="157.3%" filterUnits="objectBoundingBox" id="filter-1">
            <feOffset dx="0" dy="5" in="SourceAlpha" result="shadowOffsetOuter1"></feOffset>
            <feGaussianBlur stdDeviation="5" in="shadowOffsetOuter1" result="shadowBlurOuter1"></feGaussianBlur>
            <feColorMatrix values="0 0 0 0 0   0 0 0 0 0   0 0 0 0 0  0 0 0 0.2 0" type="matrix" in="shadowBlurOuter1" result="shadowMatrixOuter1"></feColorMatrix>
            <feMerge>
                <feMergeNode in="shadowMatrixOuter1"></feMergeNode>
                <feMergeNode in="SourceGraphic"></feMergeNode>
            </feMerge>
        </filter>
        <rect id="path-2" x="0" y="0" width="160" height="102.508475" rx="6.50847458"></rect>
        <linearGradient x1="85.0977088%" y1="49.8728814%" x2="13.5233555%" y2="49.8728814%" id="linearGradient-4">
            <stop stop-color="#28A8E0" offset="0%"></stop>
            <stop stop-color="#7EC246" offset="100%"></stop>
        </linearGradient>
        <path d="M1.28601991,0.697574967 C0.55565743,1.15239433 0.19047619,1.64659461 0.19047619,2.1801758 C0.19047619,2.71375699 0.19047619,6.68635871 0.19047619,14.0979809 C0.438652198,15.3954765 1.12859493,15.9596697 2.26030439,15.7905606 C3.39201385,15.6214515 8.83979682,15.536897 18.6036533,15.536897 C19.6192072,15.2132849 20.1269841,14.4995363 20.1269841,13.3956512 C20.1269841,12.2917661 20.0634921,8.55327432 19.9365079,2.1801758 C20.0931056,1.06494343 19.3392223,0.507327249 17.6748581,0.507327249 C16.0104939,0.507327249 10.5475478,0.570743155 1.28601991,0.697574967 Z" id="path-5"></path>
        <linearGradient x1="24.7817315%" y1="75.1350195%" x2="75.412455%" y2="24.53484%" id="linearGradient-7">
            <stop stop-color="#FBC926" offset="0%"></stop>
            <stop stop-color="#FBC926" offset="0.5618%"></stop>
            <stop stop-color="#FFFBCC" offset="25.28%"></stop>
            <stop stop-color="#F8EBB8" offset="29.86%"></stop>
            <stop stop-color="#E7CF8E" offset="38.96%"></stop>
            <stop stop-color="#D0A953" offset="51.59%"></stop>
            <stop stop-color="#C3922E" offset="59.55%"></stop>
            <stop stop-color="#E2C675" offset="81.43%"></stop>
            <stop stop-color="#EED688" offset="87.08%"></stop>
            <stop stop-color="#FFFBCC" offset="100%"></stop>
        </linearGradient>
    </defs>
    <g id="2.1-dashboard/account" stroke="none" stroke-width="1" fill="none" fill-rule="evenodd">
        <g id="dashboard/account/transactions/D---1.0-All-Transactions" transform="translate(-1023.000000, -172.000000)">
            <g id="Account-Overview" transform="translate(-0.000000, 170.000000)">
                <g id="Card" filter="url(#filter-1)" transform="translate(1033.000000, 7.000000)">
                    <mask id="mask-3" fill="white">
                        <use xlink:href="#path-2"></use>
                    </mask>
                    <use id="Mask" fill="#D8D8D8" xlink:href="#path-2"></use>
                    <g id="CapWay-Card" mask="url(#mask-3)">
                        <rect id="Black_card_color" fill="#000000" fill-rule="nonzero" x="0" y="8.52651283e-14" width="160" height="102.289857"></rect>
                        <path d="M70.6666667,39.3178618 C69.5238095,36.7178096 66.9206349,34.8787484 63.8730159,34.8787484 C59.8095238,34.8787484 56.4444444,38.1763755 56.4444444,42.2349935 C56.4444444,46.2936115 59.7460317,49.5912386 63.8730159,49.5912386 C66.7936508,49.5912386 69.3333333,47.8790091 70.5396825,45.4057888 L67.9365079,45.4057888 C66.984127,46.610691 65.5238095,47.3716819 63.8730159,47.3716819 C61.015873,47.3716819 58.6666667,45.0252934 58.6666667,42.1715776 C58.6666667,39.3178618 61.015873,36.9714733 63.8730159,36.9714733 C65.6507937,36.9714733 67.2380952,37.859296 68.1904762,39.19103 L70.6666667,39.3178618 L70.6666667,39.3178618 Z M82.7936508,45.913116 L76.7619048,45.913116 L75.1746032,48.9570795 L72.8888889,48.9570795 L79.8730159,35.5129074 L86.5396825,48.9570795 L84.2539683,48.9570795 L82.7936508,45.913116 Z M81.9047619,44.1374707 L79.8095238,39.825189 L77.6507937,44.1374707 L81.9047619,44.1374707 Z M92.1269841,43.8203911 L92.1269841,48.9570795 L90.031746,48.9570795 L90.031746,36.2738983 L92.4444444,36.2738983 C93.6507937,36.2738983 94.4761905,36.3373142 95.1111111,36.464146 C95.6825397,36.5909778 96.2539683,36.9080574 96.6984127,37.2885528 C97.5238095,37.9861278 97.9047619,38.8739505 97.9047619,39.9520209 C97.9047619,41.0935072 97.4603175,42.0447458 96.6349206,42.6789048 C95.8095238,43.3130639 94.6031746,43.6935593 93.1428571,43.6935593 L92.1269841,43.6935593 L92.1269841,43.8203911 Z M92.1269841,42.0447458 L92.8888889,42.0447458 C94.8571429,42.0447458 95.8095238,41.3471708 95.8095238,40.0154368 C95.8095238,38.6837027 94.7936508,38.0495437 92.8253968,38.0495437 L92.0634921,38.0495437 L92.1269841,42.0447458 L92.1269841,42.0447458 Z M102.47619,36.3373142 L106.15873,44.7716297 L109.968254,35.7031551 L113.650794,44.7716297 L117.52381,36.3373142 L119.809524,36.3373142 L113.52381,49.7814863 L109.904762,40.8398435 L106.15873,49.8449022 L100.190476,36.4007301 L102.47619,36.4007301 L102.47619,36.3373142 Z M128.253968,45.913116 L122.222222,45.913116 L120.634921,48.9570795 L118.349206,48.9570795 L125.333333,35.5129074 L132,48.9570795 L129.714286,48.9570795 L128.253968,45.913116 Z M127.365079,44.1374707 L125.269841,39.825189 L123.111111,44.1374707 L127.365079,44.1374707 Z M135.619048,43.5033116 L131.047619,36.3373142 L133.460317,36.3373142 L136.698413,41.4105867 L139.936508,36.3373142 L142.349206,36.3373142 L137.777778,43.5033116 L137.777778,48.9570795 L135.68254,48.9570795 L135.619048,43.5033116 L135.619048,43.5033116 Z" id="Shape" fill="url(#linearGradient-4)"></path>
                        <g id="Group" transform="translate(132.063492, 73.562451)" fill="#FFFFFF" fill-rule="nonzero">
                            <path d="M4.25396825,2.66346806 C4.25396825,3.48787484 4,4.1220339 3.55555556,4.56594524 C3.11111111,5.00985658 2.41269841,5.2001043 1.58730159,5.2001043 L0.19047619,5.2001043 L0.19047619,0.253663625 L1.71428571,0.253663625 C2.47619048,0.253663625 3.11111111,0.443911343 3.55555556,0.887822686 C4.06349206,1.26831812 4.25396825,1.90247718 4.25396825,2.66346806 Z M3.36507937,2.66346806 C3.36507937,1.45856584 2.79365079,0.887822686 1.71428571,0.887822686 L1.01587302,0.887822686 L1.01587302,4.50252934 L1.58730159,4.50252934 C2.79365079,4.50252934 3.36507937,3.93178618 3.36507937,2.66346806 Z" id="Shape"></path>
                            <polygon id="Path" points="8.12698413 5.2001043 5.33333333 5.2001043 5.33333333 0.253663625 8.12698413 0.253663625 8.12698413 0.951238592 6.0952381 0.951238592 6.0952381 2.28297262 8 2.28297262 8 2.98054759 6.0952381 2.98054759 6.0952381 4.56594524 8.12698413 4.56594524"></polygon>
                            <path d="M9.20634921,0.190247718 L10.6666667,0.190247718 C11.3650794,0.190247718 11.8730159,0.317079531 12.1269841,0.507327249 C12.4444444,0.697574967 12.5714286,1.0146545 12.5714286,1.45856584 C12.5714286,1.77564537 12.5079365,1.96589309 12.3174603,2.15614081 C12.1904762,2.34638853 11.9365079,2.47322034 11.6825397,2.53663625 L11.6825397,2.60005215 C12.0634921,2.66346806 12.3174603,2.79029987 12.4444444,2.98054759 C12.6349206,3.17079531 12.6984127,3.42445893 12.6984127,3.74153846 C12.6984127,4.1854498 12.5714286,4.56594524 12.2539683,4.81960887 C11.9365079,5.07327249 11.4920635,5.2001043 10.9206349,5.2001043 L9.14285714,5.2001043 L9.20634921,0.190247718 L9.20634921,0.190247718 Z M10.031746,2.28297262 L10.7936508,2.28297262 C11.1111111,2.28297262 11.3650794,2.21955671 11.5555556,2.15614081 C11.7460317,2.0927249 11.8095238,1.83906128 11.8095238,1.58539765 C11.8095238,1.33173403 11.7460317,1.20490222 11.5555556,1.0780704 C11.3650794,0.951238592 11.1111111,0.951238592 10.7301587,0.951238592 L10.031746,0.951238592 L10.031746,2.28297262 L10.031746,2.28297262 Z M10.031746,2.91713168 L10.031746,4.50252934 L10.9206349,4.50252934 C11.2380952,4.50252934 11.4920635,4.43911343 11.6825397,4.31228162 C11.8730159,4.1854498 11.9365079,3.99520209 11.9365079,3.67812256 C11.9365079,3.42445893 11.8730159,3.23421121 11.6825397,3.1073794 C11.4920635,2.98054759 11.2380952,2.91713168 10.8571429,2.91713168 C10.8571429,2.91713168 10.031746,2.91713168 10.031746,2.91713168 Z" id="Shape"></path>
                            <polygon id="Path" points="13.8412698 5.2001043 13.8412698 0.253663625 14.6666667 0.253663625 14.6666667 5.2001043"></polygon>
                            <polygon id="Path" points="17.7142857 5.2001043 16.8888889 5.2001043 16.8888889 0.887822686 15.4285714 0.887822686 15.4285714 0.190247718 19.1746032 0.190247718 19.1746032 0.887822686 17.7142857 0.887822686 17.7142857 5.2001043"></polygon>
                        </g>
                        <g id="Group" transform="translate(20.317460, 34.244589)">
                            <g id="Path" transform="translate(0.507937, 0.000000)">
                                <mask id="mask-6" fill="white">
                                    <use xlink:href="#path-5"></use>
                                </mask>
                                <g id="Mask"></g>
                                <polygon fill="url(#linearGradient-7)" fill-rule="nonzero" mask="url(#mask-6)" points="-7.61904762 8.11723598 10.031746 -9.51238592 27.6825397 8.11723598 10.031746 25.8102738"></polygon>
                            </g>
                            <path d="M18.8571429,0.507327249 C13.3333333,0.507327249 7.80952381,0.507327249 2.28571429,0.507327249 C1.14285714,0.507327249 0.507936508,1.14148631 0.507936508,2.79029987 C0.507936508,6.40500652 0.507936508,10.146545 0.507936508,13.6344198 C0.507936508,14.9027379 1.14285714,15.7905606 2.28571429,15.7905606 L10.5396825,15.7905606 C13.3333333,15.7905606 16.0634921,15.7905606 18.8571429,15.7905606 C19.9365079,15.7905606 20.6349206,14.9661538 20.6349206,13.8246675 C20.6349206,9.95629726 20.6349206,6.15134289 20.6349206,2.28297262 C20.6349206,1.20490222 19.8730159,0.507327249 18.8571429,0.507327249 L18.8571429,0.507327249 Z M0.698412698,5.26352021 L0.698412698,2.60005215 C0.698412698,1.33173403 1.33333333,0.760990874 2.34920635,0.697574967 C4,0.697574967 5.07936508,0.697574967 6.73015873,0.697574967 C6.92063492,0.697574967 7.17460317,0.82440678 7.3015873,0.951238592 C8.12698413,1.77564537 9.07936508,2.40980443 9.9047619,3.17079531 C9.96825397,3.23421121 10.031746,3.29762712 10.031746,3.36104302 C10.031746,3.74153846 10.031746,3.99520209 10.031746,4.31228162 C10.031746,4.81960887 9.58730159,5.26352021 9.07936508,5.26352021 L0.698412698,5.26352021 L0.698412698,5.26352021 Z M7.74603175,5.96109518 L7.74603175,10.2099609 C7.74603175,10.4002086 7.55555556,10.5904563 7.36507937,10.5904563 L0.698412698,10.5904563 L0.698412698,5.96109518 C0.698412698,5.70743155 0.888888889,5.51718383 1.07936508,5.51718383 L7.3015873,5.51718383 C7.55555556,5.58059974 7.74603175,5.70743155 7.74603175,5.96109518 L7.74603175,5.96109518 Z M6.85714286,15.536897 C5.14285714,15.536897 4,15.536897 2.34920635,15.536897 C1.3968254,15.536897 0.761904762,14.839322 0.761904762,13.8880834 C0.761904762,12.8734289 0.761904762,11.8587744 0.761904762,10.9075359 L9.26984127,10.9075359 C9.71428571,10.9075359 9.9047619,11.2246154 10.031746,11.6685267 C10.031746,11.7953585 10.031746,12.0490222 10.031746,12.1124381 C10.031746,12.4929335 9.96825397,12.9368449 9.58730159,13.3173403 C8.76190476,14.0783312 7.93650794,14.6490743 7.17460317,15.4734811 C7.04761905,15.4734811 6.92063492,15.536897 6.85714286,15.536897 L6.85714286,15.536897 Z M13.3968254,5.26352021 C13.2063492,5.26352021 13.015873,5.45376793 13.015873,5.64401565 L13.015873,10.2733768 C13.015873,10.4002086 12.8888889,10.5270404 12.7619048,10.5270404 L12.6984127,10.5270404 L12.6984127,10.5270404 L11.8730159,10.5270404 C11.2380952,10.5270404 10.7301587,11.0343677 10.7301587,11.6685267 L10.7301587,12.3026858 C10.7301587,12.5563494 10.7936508,13.0636767 10.984127,13.2539244 L13.5873016,15.4734811 L14.2222222,15.4734811 C14.1587302,15.4734811 14.031746,15.4100652 13.968254,15.3466493 C13.2063492,14.5222425 12.3174603,13.9514993 11.5555556,13.1905085 C11.1111111,12.810013 11.1111111,12.4295176 11.1111111,12.0490222 C11.1111111,11.8587744 11.1111111,11.6685267 11.1111111,11.5416949 C11.2380952,11.1611995 11.4285714,10.8441199 11.8730159,10.8441199 L12.6984127,10.8441199 L12.6984127,10.8441199 L20.4444444,10.8441199 C20.4444444,11.9221904 20.4444444,12.6831812 20.4444444,13.7612516 C20.4444444,14.839322 19.8095238,15.4734811 18.7936508,15.4734811 C17.2063492,15.4734811 15.6190476,15.4734811 14.031746,15.4734811 L13.5238095,15.4734811 L7.55555556,15.4734811 L10.1587302,13.2539244 C10.3492063,13.0636767 10.4126984,12.5563494 10.4126984,12.3026858 L10.4126984,11.6685267 C10.4126984,11.0343677 9.9047619,10.5270404 9.26984127,10.5270404 L8.44444444,10.5270404 C8.25396825,10.5270404 8.06349206,10.3367927 8.06349206,10.146545 L8.06349206,6.02451108 C8.06349206,5.77084746 8.25396825,5.51718383 8.57142857,5.51718383 L9.20634921,5.51718383 C10.2857143,5.51718383 10.4761905,4.69277705 10.4761905,4.43911343 C10.4761905,4.05861799 10.4761905,3.42445893 10.4761905,3.17079531 C10.4761905,3.1073794 10.4126984,2.98054759 10.3492063,2.98054759 L7.61904762,0.760990874 L13.2063492,0.760990874 L13.3968254,0.760990874 L10.8571429,2.98054759 C10.7936508,3.04396349 10.7301587,3.1073794 10.7301587,3.23421121 C10.7301587,3.80495437 10.7301587,4.81960887 10.7301587,5.00985658 C10.7301587,5.2001043 11.047619,5.2001043 11.047619,5.00985658 C11.047619,4.81960887 11.047619,3.80495437 11.047619,3.42445893 C11.047619,3.36104302 11.047619,3.29762712 11.1111111,3.29762712 C12.0634921,2.40980443 13.015873,1.64881356 13.968254,0.760990874 C13.968254,0.760990874 13.968254,0.760990874 13.968254,0.760990874 C15.5555556,0.760990874 17.1428571,0.760990874 18.7301587,0.760990874 C19.7460317,0.760990874 20.3809524,1.39514993 20.3809524,2.47322034 C20.3809524,3.61470665 20.3809524,4.1854498 20.3809524,5.32693611 L13.3968254,5.26352021 L13.3968254,5.26352021 Z M20.3809524,5.58059974 L20.3809524,10.5904563 L13.5873016,10.5904563 C13.4603175,10.5904563 13.3333333,10.4636245 13.3333333,10.3367927 L13.3333333,5.89767927 C13.3333333,5.77084746 13.4603175,5.64401565 13.5873016,5.64401565 L20.3809524,5.64401565 L20.3809524,5.58059974 Z" id="Shape" fill="#000000" fill-rule="nonzero"></path>
                        </g>
                        <path d="M130.730159,84.2163233 L126.285714,94.8067797 L123.365079,94.8067797 L121.206349,86.3724641 C121.079365,85.8651369 120.952381,85.6748892 120.571429,85.4212256 C119.936508,85.0407301 118.793651,84.7236506 117.84127,84.5334029 L117.904762,84.2163233 L122.603175,84.2163233 C123.174603,84.2163233 123.746032,84.5968188 123.873016,85.2943937 L125.015873,91.4457366 L127.873016,84.2163233 L130.730159,84.2163233 L130.730159,84.2163233 Z M142.095238,91.3189048 C142.095238,88.528605 138.222222,88.4017731 138.222222,87.133455 C138.222222,86.7529596 138.603175,86.3724641 139.365079,86.2456323 C139.746032,86.1822164 140.825397,86.1822164 142.095238,86.7529596 L142.603175,84.5334029 C141.968254,84.2797392 141.079365,84.0894915 140.063492,84.0894915 C137.333333,84.0894915 135.428571,85.5480574 135.428571,87.5773664 C135.428571,89.0993481 136.761905,89.9871708 137.84127,90.494498 C138.920635,91.0018253 139.238095,91.3189048 139.238095,91.8262321 C139.238095,92.523807 138.412698,92.8408866 137.587302,92.8408866 C136.190476,92.8408866 135.428571,92.4603911 134.793651,92.1433116 L134.285714,94.4897001 C134.920635,94.8067797 136.126984,95.0604433 137.333333,95.0604433 C140.190476,94.9336115 142.095238,93.5384615 142.095238,91.3189048 L142.095238,91.3189048 Z M149.269841,94.7433638 L151.809524,94.7433638 L149.587302,84.1529074 L147.238095,84.1529074 C146.730159,84.1529074 146.285714,84.469987 146.095238,84.9138983 L141.968254,94.7433638 L144.825397,94.7433638 L145.396825,93.1579661 L148.888889,93.1579661 L149.269841,94.7433638 Z M146.15873,91.0018253 L147.619048,87.0066232 L148.444444,91.0018253 L146.15873,91.0018253 Z M134.666667,84.2163233 L132.380952,94.8067797 L129.650794,94.8067797 L131.936508,84.2163233 L134.666667,84.2163233 Z" id="Shape" fill="#FFFFFF" fill-rule="nonzero"></path>
                    </g>
                </g>
            </g>
        </g>
    </g>
</svg>