<?xml version="1.0" encoding="UTF-8"?>
<svg width="144px" height="26px" viewBox="0 0 144 26" version="1.1" xmlns="http://www.w3.org/2000/svg" xmlns:xlink="http://www.w3.org/1999/xlink">
    <!-- Generator: Sketch 56.2 (81672) - https://sketch.com -->
    <title>logo/white</title>
    <desc>Created with Sketch.</desc>
    <defs>
        <path d="M12.4373745,0 C5.56818533,0 0,5.54 0,12.3727778 L0,12.3727778 C0,19.2072222 5.56818533,24.7466667 12.4373745,24.7466667 L12.4373745,24.7466667 C17.3567259,24.7466667 21.6094517,21.9044444 23.6265637,17.7805556 L23.6265637,17.7805556 L19.2865483,17.7805556 C17.6847568,19.7855556 15.2128494,21.0711111 12.4384865,21.0711111 L12.4384865,21.0711111 C7.6103166,21.0711111 3.69674131,17.1772222 3.69674131,12.3744444 L3.69674131,12.3744444 C3.69674131,7.57166667 7.6103166,3.67777778 12.4384865,3.67777778 L12.4384865,3.67777778 C15.4241236,3.67777778 18.0594903,5.16666667 19.6368185,7.43833333 L19.6368185,7.43833333 L23.8456216,7.43833333 C21.9296988,3.06111111 17.5429807,0 12.4373745,0 Z M103.867367,23.6388889 L107.690317,23.6388889 L110.310116,18.4822222 L120.377884,18.4822222 L122.845344,23.6388889 L126.729452,23.6388889 L115.504124,1.07277778 L103.867367,23.6388889 Z M115.442409,8.25166667 L118.930656,15.4705556 L111.787923,15.4705556 L115.442409,8.25166667 Z M27.6335444,23.6388889 L31.4559382,23.6388889 L34.0757375,18.4822222 L44.1435058,18.4822222 L46.6104093,23.6388889 L50.4945174,23.6388889 L39.2691892,1.07277778 L27.6335444,23.6388889 Z M39.2085869,8.25166667 L42.696278,15.4705556 L35.5529884,15.4705556 L39.2085869,8.25166667 Z M83.30539,16.5983333 L77.182332,2.40722222 L73.3293591,2.40722222 L83.3209575,25 L89.6258224,9.94222222 L95.6727104,24.9866667 L106.181375,2.40722222 L102.328402,2.40722222 L95.8250502,16.5983333 L89.7019923,1.37611111 L83.30539,16.5983333 Z M139.917961,2.40722222 L134.526023,10.8916667 L129.150208,2.40722222 L125.068726,2.40722222 L132.744649,14.4666667 L132.744649,23.6388889 L136.292942,23.6388889 L136.292942,14.4666667 L144,2.40722222 L139.917961,2.40722222 Z M56.2128185,2.40722222 L56.2128185,23.6388889 L59.761668,23.6388889 L59.761668,15.0172222 L61.4062703,15.0172222 C63.8537143,15.0172222 65.7985483,14.4477778 67.2396602,13.3116667 L67.2396602,13.3116667 C68.6813282,12.175 69.4024402,10.635 69.4024402,8.69166667 L69.4024402,8.69166667 C69.4024402,6.87611111 68.7274749,5.37277778 67.3769884,4.18166667 L67.3769884,4.18166667 C66.6052819,3.49333333 65.7118147,3.02666667 64.6965869,2.77833333 L64.6965869,2.77833333 C63.6913668,2.53111111 62.2035521,2.40722222 60.2336988,2.40722222 L60.2336988,2.40722222 L56.2128185,2.40722222 Z M59.761668,5.36333333 L60.9347954,5.36333333 C64.295166,5.36333333 65.9753514,6.45888889 65.9753514,8.65 L65.9753514,8.65 C65.9753514,10.9144444 64.3463166,12.0466667 61.0865792,12.0466667 L61.0865792,12.0466667 L59.761668,12.0466667 L59.761668,5.36333333 Z" id="path-1"></path>
        <linearGradient x1="68.9045851%" y1="51.1034697%" x2="31.2525834%" y2="48.7163169%" id="linearGradient-3">
            <stop stop-color="#26A8E1" offset="0%"></stop>
            <stop stop-color="#70DA44" offset="100%"></stop>
        </linearGradient>
    </defs>
    <g id="Symbols" stroke="none" stroke-width="1" fill="none" fill-rule="evenodd">
        <g id="footer/laptop" transform="translate(-247.000000, -67.000000)">
            <g id="logo/full-color" transform="translate(247.000000, 54.000000)">
                <g id="Group-3" transform="translate(0.000000, 13.333333)">
                    <path d="M141.672453,23.5895182 C140.371469,23.5895182 139.338728,22.5555827 139.338728,21.2530924 C139.338728,19.9461263 140.371469,18.9166667 141.672453,18.9166667 C142.977908,18.9166667 144.006178,19.9461263 144.006178,21.2530924 C144.006178,22.5555827 142.977908,23.5895182 141.672453,23.5895182 Z M141.672453,23.1240234 C142.718605,23.1240234 143.541221,22.2959798 143.541221,21.2530924 C143.541221,20.2057292 142.718605,19.3821615 141.672453,19.3821615 C140.630771,19.3821615 139.803685,20.2057292 139.803685,21.2530924 C139.803685,22.2959798 140.630771,23.1240234 141.672453,23.1240234 Z M141.211967,22.3183594 L140.773835,22.3183594 L140.773835,20.0848796 L141.887048,20.0848796 C142.334122,20.0848796 142.664957,20.3758138 142.664957,20.769694 C142.664957,21.1277669 142.481656,21.3605143 142.146351,21.4410807 L142.763313,22.3183594 L142.226824,22.3183594 L141.650099,21.4992676 L141.211967,21.4992676 L141.211967,22.3183594 Z M141.211967,20.4832357 L141.211967,21.123291 L141.766339,21.123291 C142.047995,21.123291 142.177646,21.0203451 142.177646,20.7920736 C142.177646,20.5861816 142.047995,20.4832357 141.779751,20.4832357 L141.211967,20.4832357 Z" id="®" fill="#00ACE2" fill-rule="nonzero"></path>
                    <mask id="mask-2" fill="white">
                        <use xlink:href="#path-1"></use>
                    </mask>
                    <g id="Clip-2"></g>
                    <path d="M12.4373745,0 C5.56818533,0 0,5.54 0,12.3727778 L0,12.3727778 C0,19.2072222 5.56818533,24.7466667 12.4373745,24.7466667 L12.4373745,24.7466667 C17.3567259,24.7466667 21.6094517,21.9044444 23.6265637,17.7805556 L23.6265637,17.7805556 L19.2865483,17.7805556 C17.6847568,19.7855556 15.2128494,21.0711111 12.4384865,21.0711111 L12.4384865,21.0711111 C7.6103166,21.0711111 3.69674131,17.1772222 3.69674131,12.3744444 L3.69674131,12.3744444 C3.69674131,7.57166667 7.6103166,3.67777778 12.4384865,3.67777778 L12.4384865,3.67777778 C15.4241236,3.67777778 18.0594903,5.16666667 19.6368185,7.43833333 L19.6368185,7.43833333 L23.8456216,7.43833333 C21.9296988,3.06111111 17.5429807,0 12.4373745,0 Z M103.867367,23.6388889 L107.690317,23.6388889 L110.310116,18.4822222 L120.377884,18.4822222 L122.845344,23.6388889 L126.729452,23.6388889 L115.504124,1.07277778 L103.867367,23.6388889 Z M115.442409,8.25166667 L118.930656,15.4705556 L111.787923,15.4705556 L115.442409,8.25166667 Z M27.6335444,23.6388889 L31.4559382,23.6388889 L34.0757375,18.4822222 L44.1435058,18.4822222 L46.6104093,23.6388889 L50.4945174,23.6388889 L39.2691892,1.07277778 L27.6335444,23.6388889 Z M39.2085869,8.25166667 L42.696278,15.4705556 L35.5529884,15.4705556 L39.2085869,8.25166667 Z M83.30539,16.5983333 L77.182332,2.40722222 L73.3293591,2.40722222 L83.3209575,25 L89.6258224,9.94222222 L95.6727104,24.9866667 L106.181375,2.40722222 L102.328402,2.40722222 L95.8250502,16.5983333 L89.7019923,1.37611111 L83.30539,16.5983333 Z M139.917961,2.40722222 L134.526023,10.8916667 L129.150208,2.40722222 L125.068726,2.40722222 L132.744649,14.4666667 L132.744649,23.6388889 L136.292942,23.6388889 L136.292942,14.4666667 L144,2.40722222 L139.917961,2.40722222 Z M56.2128185,2.40722222 L56.2128185,23.6388889 L59.761668,23.6388889 L59.761668,15.0172222 L61.4062703,15.0172222 C63.8537143,15.0172222 65.7985483,14.4477778 67.2396602,13.3116667 L67.2396602,13.3116667 C68.6813282,12.175 69.4024402,10.635 69.4024402,8.69166667 L69.4024402,8.69166667 C69.4024402,6.87611111 68.7274749,5.37277778 67.3769884,4.18166667 L67.3769884,4.18166667 C66.6052819,3.49333333 65.7118147,3.02666667 64.6965869,2.77833333 L64.6965869,2.77833333 C63.6913668,2.53111111 62.2035521,2.40722222 60.2336988,2.40722222 L60.2336988,2.40722222 L56.2128185,2.40722222 Z M59.761668,5.36333333 L60.9347954,5.36333333 C64.295166,5.36333333 65.9753514,6.45888889 65.9753514,8.65 L65.9753514,8.65 C65.9753514,10.9144444 64.3463166,12.0466667 61.0865792,12.0466667 L61.0865792,12.0466667 L59.761668,12.0466667 L59.761668,5.36333333 Z" id="Fill-1" fill="url(#linearGradient-3)" mask="url(#mask-2)"></path>
                </g>
            </g>
        </g>
    </g>
</svg>